<svg xmlns="http://www.w3.org/2000/svg" viewBox="0 0 249.33 102.67"><defs><style>.cls-1{fill:#c9381c;}.cls-2{fill:#e8b394;}.cls-3{fill:#dd8c62;}.cls-4{fill:#d26339;}</style></defs><title>アセット 2</title><g id="レイヤー_2" data-name="レイヤー 2"><g id="レイヤー_2-2" data-name="レイヤー 2"><path class="cls-1" d="M44.94,86.42A3.11,3.11,0,0,1,42,88.92a2,2,0,0,1-2.06-2.5l6.63-37.59H32.82a2,2,0,0,1-2.06-2.5,3.11,3.11,0,0,1,2.94-2.5H64.28L72,0H61.18C32.94,0,5.77,23.1.79,51.33h0c-5,28.24,14.05,51.34,42.28,51.34H53.91L63.4,48.83H51.57Z"/><path class="cls-2" d="M212.77,31.58a3.12,3.12,0,0,1,2.94-2.5h31.65C242.06,11.91,226.53,0,206.26,0H195.43L177.32,102.67h10.84c19.37,0,38.25-10.88,49.79-26.84H206.72a2,2,0,0,1-2.06-2.5,3.12,3.12,0,0,1,2.94-2.5h33.62a58.1,58.1,0,0,0,7.32-19.5h0a48.53,48.53,0,0,0,0-17.25H214.83A2,2,0,0,1,212.77,31.58Z"/><path class="cls-3" d="M160.11,36.58a3.11,3.11,0,0,1-2.94,2.5,2,2,0,0,1-2.06-2.5L161.56,0H134.73l-18.1,102.67h15.58l9.35-53a3.11,3.11,0,0,1,2.94-2.5,2,2,0,0,1,2.06,2.5l-9.35,53h17.25l9.35-53a3.11,3.11,0,0,1,2.94-2.5,2,2,0,0,1,2.06,2.5l-9.35,53H175.3L193.4,0H166.56Z"/><path class="cls-4" d="M55.93,102.67H82.77l9.34-53a3.12,3.12,0,0,1,2.94-2.5,2,2,0,0,1,2.06,2.5l-9.34,53H114.6L132.7,0H74ZM82.81,29.42h30.75a2,2,0,0,1,2.06,2.5,3.12,3.12,0,0,1-2.94,2.5H81.93a2,2,0,0,1-2.06-2.5A3.11,3.11,0,0,1,82.81,29.42Z"/></g></g></svg>