<svg xmlns="http://www.w3.org/2000/svg" viewBox="0 0 247.75 102.67"><defs><style>.cls-1{fill:#ed9027;}.cls-2{fill:#b4222b;}.cls-3{fill:#e0302e;}.cls-4{fill:#e5592b;}</style></defs><title>アセット 3</title><g id="レイヤー_2" data-name="レイヤー 2"><g id="レイヤー_2-2" data-name="レイヤー 2"><path class="cls-1" d="M50.33,86.42a2.5,2.5,0,0,1-5,0V48.83H31.58a2.5,2.5,0,0,1,0-5H62.17V0H51.33A51.48,51.48,0,0,0,0,51.33H0a51.48,51.48,0,0,0,51.33,51.34H62.17V48.83H50.33Z"/><path class="cls-2" d="M208.5,31.58a2.5,2.5,0,0,1,2.5-2.5h31.64A51.48,51.48,0,0,0,196.42,0H185.58V102.67h10.84a51.45,51.45,0,0,0,45.06-26.84H210.25a2.5,2.5,0,0,1,0-5h33.62a50.89,50.89,0,0,0,3.88-19.5h0a50.94,50.94,0,0,0-3-17.25H211A2.5,2.5,0,0,1,208.5,31.58Z"/><path class="cls-3" d="M156.72,36.58a2.5,2.5,0,1,1-5,0V0H124.89V102.67h15.58v-53a2.5,2.5,0,1,1,5,0v53h17.25v-53a2.5,2.5,0,1,1,5,0v53h15.84V0H156.72Z"/><path class="cls-4" d="M64.19,102.67H91v-53a2.5,2.5,0,1,1,5,0v53h26.83V0H64.19Zm14-73.25H108.9a2.5,2.5,0,0,1,0,5H78.15a2.5,2.5,0,0,1,0-5Z"/></g></g></svg>