<svg xmlns="http://www.w3.org/2000/svg" viewBox="0 0 201.57 201.56"><defs><style>.cls-1{fill:#f39800;stroke:#f39800;stroke-width:10px;}.cls-1,.cls-2,.cls-6{stroke-miterlimit:10;}.cls-2{fill:#cacacb;}.cls-2,.cls-6{stroke:#231815;stroke-width:5px;}.cls-3{fill:#231815;}.cls-4,.cls-6{fill:none;}.cls-5{fill:#076fb8;}</style></defs><title>アセット 5</title><g id="レイヤー_2" data-name="レイヤー 2"><g id="レイヤー_2-2" data-name="レイヤー 2"><rect class="cls-1" x="18.73" y="18.72" width="177.84" height="177.84"/><path class="cls-2" d="M108.3,90.85a30.09,30.09,0,0,0-26.41,15.62,30.15,30.15,0,0,0,52.84,0A30.13,30.13,0,0,0,108.3,90.85Z"/><circle class="cls-3" cx="108.31" cy="106.89" r="14.73"/><polygon class="cls-4" points="77.43 6.96 77.43 82.41 6.65 82.41 6.65 177.84 177.84 177.84 177.84 6.65 77.74 6.65 77.43 6.96"/><polygon class="cls-5" points="6.65 6.65 6.65 68.33 68.33 6.65 6.65 6.65"/><path d="M77.43,0H0V184.49H184.49V0ZM6.65,6.65H68.33L6.65,68.33ZM177.84,177.84H6.65V77.74L77.43,7l.31-.31h100.1Z"/><polyline class="cls-6" points="79.74 133.56 79.74 60.6 182.41 60.6"/></g></g></svg>