<svg xmlns="http://www.w3.org/2000/svg" viewBox="0 0 56.8 137"><defs><style>.cls-1{fill:#076fb8;}</style></defs><title>アセット 7</title><g id="レイヤー_2" data-name="レイヤー 2"><g id="レイヤー_2-2" data-name="レイヤー 2"><path class="cls-1" d="M56.8,67.19H43.08v.44h-.69v-.44H31.66a2.24,2.24,0,0,1,0-4.36H56.8V0H10.42L0,13.13V137H48.18l8.62-10.86Zm-13.72,58.9h-.69v-2.62h.69Zm0-4.31h-.69V116.7h.69Zm0-6.77h-.69v-5.07h.69Zm0-6.77h-.69v-5.07h.69Zm0-6.77h-.69V96.4h.69Zm0-6.77h-.69V89.63h.69Zm0-6.76h-.69V82.86h.69Zm0-6.77h-.69V76.09h.69Zm0-6.77h-.69V69.32h.69Z"/></g></g></svg>