<svg xmlns="http://www.w3.org/2000/svg" viewBox="0 0 131.77 131.77"><defs><style>.cls-1{fill:#22ac38;}.cls-2{fill:#e61773;}.cls-3{fill:#f39800;}.cls-4{fill:#00a0e9;}</style></defs><title>アセット 6</title><g id="レイヤー_2" data-name="レイヤー 2"><g id="レイヤー_2-2" data-name="レイヤー 2"><polygon class="cls-1" points="49.78 82.83 62.15 95.28 61.19 96.24 48.82 83.78 33.3 99.19 65.66 131.77 78 119.5 65.16 106.57 66.12 105.62 78.96 118.55 84.34 113.21 71.49 100.28 72.45 99.33 85.3 112.26 98.23 99.41 65.88 66.84 49.78 82.83"/><polygon class="cls-2" points="46.85 47.67 34.39 60.05 46.29 72.02 45.81 72.5 45.33 72.97 32.48 60.04 32.96 59.56 33.44 59.09 45.9 46.72 32.58 33.3 0 65.66 32.35 98.23 64.93 65.88 46.85 47.67"/><path class="cls-3" d="M81.22,49.7,68.37,36.77l1-1L82.17,48.75,98.46,32.58,66.11,0,33.53,32.35,65.89,64.93ZM68.89,23.88l1,1L56.91,37.68l-.95-1Z"/><polygon class="cls-4" points="66.84 65.89 99.19 98.46 131.77 66.11 119.87 54.13 107.42 66.5 106.46 65.55 118.92 53.17 113.58 47.8 101.13 60.17 100.17 59.21 112.63 46.84 99.41 33.53 66.84 65.89"/></g></g></svg>